<?xml version="1.0" encoding="UTF-8" standalone="no"?><!-- Generator: Gravit.io --><svg xmlns="http://www.w3.org/2000/svg" xmlns:xlink="http://www.w3.org/1999/xlink" style="isolation:isolate" viewBox="0 0 30 30" width="30pt" height="30pt"><defs><clipPath id="_clipPath_6y4QipLW8D8PBfWftjzBG3K01kzRjPHX"><rect width="30" height="30"/></clipPath></defs><g clip-path="url(#_clipPath_6y4QipLW8D8PBfWftjzBG3K01kzRjPHX)"><g><g><path d=" M 15 0 C 23.285 0 30 6.716 30 15 C 30 23.285 23.285 30 15 30 C 6.715 30 0 23.285 0 15 C 0 6.716 6.715 0 15 0 Z " fill="rgb(59,89,152)"/><path d=" M 16.826 10.327 L 18.759 10.327 L 18.759 7.471 L 16.487 7.471 L 16.487 7.481 C 13.734 7.579 13.169 9.126 13.119 10.752 L 13.114 10.752 L 13.114 12.178 L 11.239 12.178 L 11.239 14.975 L 13.114 14.975 L 13.114 22.471 L 15.939 22.471 L 15.939 14.975 L 18.254 14.975 L 18.701 12.178 L 15.94 12.178 L 15.94 11.317 C 15.94 10.767 16.306 10.327 16.826 10.327 Z " fill="rgb(255,255,255)"/></g></g></g></svg>