<?xml version="1.0" encoding="UTF-8" standalone="no"?><!-- Generator: Gravit.io --><svg xmlns="http://www.w3.org/2000/svg" xmlns:xlink="http://www.w3.org/1999/xlink" style="isolation:isolate" viewBox="0 0 30 30" width="30pt" height="30pt"><defs><clipPath id="_clipPath_mqKZb0AZPTsqAXoHBa5vnviBR6nzlGKh"><rect width="30" height="30"/></clipPath></defs><g clip-path="url(#_clipPath_mqKZb0AZPTsqAXoHBa5vnviBR6nzlGKh)"><g><circle vector-effect="non-scaling-stroke" cx="15" cy="15" r="15" fill="rgb(239,114,173)"/><g><path d=" M 20.557 5.38 L 9.443 5.38 C 7.203 5.38 5.38 7.203 5.38 9.443 L 5.38 20.557 C 5.38 22.797 7.203 24.62 9.443 24.62 L 20.557 24.62 C 22.797 24.62 24.62 22.797 24.62 20.557 L 24.62 9.443 C 24.62 7.203 22.797 5.38 20.557 5.38 Z  M 23.641 20.557 C 23.641 22.258 22.258 23.641 20.557 23.641 L 9.443 23.641 C 7.742 23.641 6.359 22.258 6.359 20.557 L 6.359 9.443 C 6.359 7.742 7.742 6.359 9.443 6.359 L 20.557 6.359 C 22.258 6.359 23.641 7.742 23.641 9.443 L 23.641 20.557 L 23.641 20.557 L 23.641 20.557 Z " fill="rgb(255,255,255)"/><path d=" M 15 9.946 C 12.213 9.946 9.946 12.213 9.946 15 C 9.946 17.787 12.213 20.054 15 20.054 C 17.787 20.054 20.054 17.787 20.054 15 C 20.054 12.213 17.787 9.946 15 9.946 Z  M 15 19.076 C 12.752 19.076 10.924 17.247 10.924 15 C 10.924 12.753 12.753 10.924 15 10.924 C 17.247 10.924 19.076 12.753 19.076 15 C 19.076 17.247 17.248 19.076 15 19.076 Z " fill="rgb(255,255,255)"/><circle vector-effect="non-scaling-stroke" cx="20.21736328124996" cy="9.13042968749994" r="1.3043554687499999" fill="rgb(255,255,255)"/></g></g></g></svg>