<?xml version="1.0" encoding="UTF-8" standalone="no"?><!-- Generator: Gravit.io --><svg xmlns="http://www.w3.org/2000/svg" xmlns:xlink="http://www.w3.org/1999/xlink" style="isolation:isolate" viewBox="0 0 30 30" width="30pt" height="30pt"><defs><clipPath id="_clipPath_fC4Tm8M2AxxtCCc38UkHJAUJbXk4lclC"><rect width="30" height="30"/></clipPath></defs><g clip-path="url(#_clipPath_fC4Tm8M2AxxtCCc38UkHJAUJbXk4lclC)"><g><circle vector-effect="non-scaling-stroke" cx="14.499999999999995" cy="15.000000000000114" r="14.500000000000007" fill="rgb(235,235,235)"/><path d=" M 14.974 0 C 7.081 0 0.614 6.076 0 13.797 L 8.054 17.121 C 8.736 16.655 9.561 16.383 10.447 16.383 C 10.527 16.383 10.606 16.385 10.684 16.389 L 14.266 11.206 L 14.266 11.134 C 14.266 8.015 16.808 5.477 19.932 5.477 C 23.057 5.477 25.599 8.015 25.599 11.134 C 25.599 14.252 23.057 16.791 19.932 16.791 C 19.889 16.791 19.847 16.79 19.804 16.789 L 14.695 20.427 C 14.698 20.494 14.701 20.561 14.701 20.628 C 14.701 22.97 12.792 24.875 10.447 24.875 C 8.389 24.875 6.666 23.407 6.277 21.465 L 0.517 19.088 C 2.301 25.384 8.096 30 14.974 30 C 23.273 30 30 23.283 30 15 C 30 6.716 23.273 0 14.974 0 Z  M 9.416 22.76 L 7.571 21.999 C 7.897 22.679 8.464 23.248 9.215 23.56 C 10.839 24.236 12.712 23.467 13.388 21.844 C 13.716 21.059 13.718 20.193 13.394 19.406 C 13.069 18.619 12.456 18.005 11.67 17.678 C 10.889 17.354 10.052 17.365 9.317 17.642 L 11.224 18.43 C 12.422 18.928 12.988 20.301 12.489 21.497 C 11.99 22.693 10.614 23.258 9.416 22.76 Z  M 23.708 11.134 C 23.708 9.056 22.014 7.364 19.933 7.364 C 17.85 7.364 16.156 9.056 16.156 11.134 C 16.156 13.212 17.85 14.903 19.933 14.903 C 22.014 14.903 23.708 13.212 23.708 11.134 Z  M 17.102 11.127 C 17.102 9.564 18.373 8.296 19.938 8.296 C 21.505 8.296 22.775 9.564 22.775 11.127 C 22.775 12.691 21.505 13.958 19.938 13.958 C 18.373 13.958 17.102 12.691 17.102 11.127 Z " fill="rgb(26,25,24)"/></g></g></svg>