<?xml version="1.0" encoding="UTF-8" standalone="no"?><!-- Generator: Gravit.io --><svg xmlns="http://www.w3.org/2000/svg" xmlns:xlink="http://www.w3.org/1999/xlink" style="isolation:isolate" viewBox="0 0 30 30" width="30pt" height="30pt"><defs><clipPath id="_clipPath_lcSGM3hMHQCOH6cosjpe0Af9VuwaJ0Qn"><rect width="30" height="30"/></clipPath></defs><g clip-path="url(#_clipPath_lcSGM3hMHQCOH6cosjpe0Af9VuwaJ0Qn)"><g><g><circle vector-effect="non-scaling-stroke" cx="15" cy="15" r="15" fill="rgb(29,161,242)"/></g><g><path d=" M 12.255 22.912 C 18.908 22.912 22.545 17.4 22.545 12.623 C 22.545 12.465 22.545 12.308 22.537 12.158 C 23.242 11.648 23.858 11.01 24.345 10.283 C 23.7 10.567 23.003 10.762 22.267 10.852 C 23.017 10.402 23.587 9.698 23.858 8.85 C 23.16 9.262 22.387 9.562 21.562 9.727 C 20.903 9.023 19.965 8.587 18.923 8.587 C 16.927 8.587 15.308 10.208 15.308 12.202 C 15.308 12.487 15.337 12.765 15.405 13.027 C 12.398 12.877 9.735 11.437 7.95 9.248 C 7.643 9.78 7.462 10.402 7.462 11.062 C 7.462 12.315 8.1 13.425 9.075 14.07 C 8.482 14.055 7.927 13.89 7.44 13.62 C 7.44 13.635 7.44 13.65 7.44 13.665 C 7.44 15.42 8.685 16.875 10.342 17.212 C 10.042 17.295 9.72 17.34 9.39 17.34 C 9.157 17.34 8.932 17.317 8.707 17.273 C 9.165 18.712 10.5 19.755 12.083 19.785 C 10.845 20.753 9.285 21.33 7.59 21.33 C 7.298 21.33 7.012 21.315 6.727 21.278 C 8.31 22.312 10.215 22.912 12.255 22.912 Z " fill="rgb(255,255,255)"/></g></g></g></svg>