<?xml version="1.0" encoding="UTF-8" standalone="no"?><!-- Generator: Gravit.io --><svg xmlns="http://www.w3.org/2000/svg" xmlns:xlink="http://www.w3.org/1999/xlink" style="isolation:isolate" viewBox="0 0 30 30" width="30pt" height="30pt"><defs><clipPath id="_clipPath_9gEiOb0r6umImkaq7mXhTLNkcIKaarUp"><rect width="30" height="30"/></clipPath></defs><g clip-path="url(#_clipPath_9gEiOb0r6umImkaq7mXhTLNkcIKaarUp)"><g><circle vector-effect="non-scaling-stroke" cx="15" cy="15" r="15" fill="rgb(212,36,40)"/><path d=" M 25.606 4.392 C 31.464 10.25 31.464 19.748 25.606 25.606 C 19.748 31.464 10.25 31.464 4.392 25.606 L 25.606 4.392 Z " fill="rgb(204,32,45)"/><path d=" M 22.85 12.105 C 22.85 10.848 21.831 9.829 20.574 9.829 L 9.898 9.829 C 8.642 9.829 7.623 10.848 7.623 12.105 L 7.623 18.21 C 7.623 19.468 8.642 20.487 9.898 20.487 L 20.574 20.487 C 21.831 20.487 22.849 19.468 22.849 18.21 L 22.849 12.105 L 22.85 12.105 Z  M 13.713 17.733 L 13.713 11.999 L 18.062 14.866 L 13.713 17.733 Z " fill="rgb(255,255,255)"/></g></g></svg>